# xmcd
#
# Track frame offsets:
#	150
#	12451
#	27776
#	50524
#	68552
#	90226
#	111451
#
# Disc length: 1676 seconds
#
# Revision: 1
# Processed by: cddbd v1.5.2PL0 Copyright (c) Steve Scherf et al.
# Submitted via: audiograbber 1.83.01
#
DISCID=50068a07
DTITLE=Pam Scheller - Open Road
DYEAR=2005
DGENRE=Country
TTITLE0=Who Do You Think You're Foolin'
TTITLE1=Open Road
TTITLE2=All That I Am
TTITLE3=That's Love
TTITLE4=Far Beyond Reason
TTITLE5=Come Lie With Me
TTITLE6=Roll The Dice
EXTD=
EXTT0=
EXTT1=
EXTT2=
EXTT3=
EXTT4=
EXTT5=
EXTT6=
PLAYORDER=
